<?xml version="1.0" encoding="UTF-8" standalone="no"?>
<!DOCTYPE svg PUBLIC "-//W3C//DTD SVG 1.1//EN" "http://www.w3.org/Graphics/SVG/1.1/DTD/svg11.dtd">
<svg width="100%" height="100%" viewBox="0 0 4320 4320" version="1.1" xmlns="http://www.w3.org/2000/svg" xmlns:xlink="http://www.w3.org/1999/xlink" xml:space="preserve" xmlns:serif="http://www.serif.com/" style="fill-rule:evenodd;clip-rule:evenodd;stroke-linejoin:round;stroke-miterlimit:2;">
    <g transform="matrix(2.31688,0,0,2.31688,-2844.45,-5593.4)">
        <g transform="matrix(0.655714,0,0,1,757.539,0)">
            <ellipse cx="2138.83" cy="3585.76" rx="1020.44" ry="347.001" style="fill:rgb(218,233,117);"/>
        </g>
        <g transform="matrix(1,0,0,1,-241.494,153.767)">
            <path d="M2998.38,4029.64C3058.87,3959.15 3090.71,3879.18 3090.71,3797.78C3090.71,3541.85 2781.89,3334.06 2401.49,3334.06C2021.1,3334.06 1712.27,3541.85 1712.27,3797.78C1712.27,3879.18 1744.12,3959.15 1804.61,4029.64L2998.38,4029.64Z" style="fill:rgb(220,166,142);"/>
        </g>
        <g transform="matrix(1,0,0,1,-434.207,268.723)">
            <ellipse cx="2325.08" cy="3219.11" rx="165.077" ry="153.767" style="fill:white;"/>
        </g>
        <g transform="matrix(1,0,0,1,104.053,268.723)">
            <ellipse cx="2325.08" cy="3219.11" rx="165.077" ry="153.767" style="fill:white;"/>
        </g>
        <g transform="matrix(1.12886,0,0,1.6621,-671.202,-1776.17)">
            <path d="M2968.74,3167.07C3015.43,3107.42 3040.01,3039.76 3040.01,2970.88C3040.01,2754.32 2801.63,2578.51 2508.01,2578.51C2214.39,2578.51 1976.01,2754.32 1976.01,2970.88C1976.01,3039.76 2000.59,3107.42 2047.28,3167.07L2968.74,3167.07Z" style="fill:rgb(218,233,117);"/>
        </g>
        <g transform="matrix(1.49594,0,0,0.441281,-704.672,1965.68)">
            <path d="M1801.63,3449.39C1808.38,3437.7 1811.94,3424.44 1811.94,3410.95C1811.94,3368.51 1777.49,3334.06 1735.05,3334.06C1692.62,3334.06 1658.17,3368.51 1658.17,3410.95C1658.17,3424.44 1661.72,3437.7 1668.47,3449.39L1801.63,3449.39Z"/>
        </g>
        <g transform="matrix(1.49594,0,0,0.441281,-166.412,1965.68)">
            <path d="M1801.63,3449.39C1808.38,3437.7 1811.94,3424.44 1811.94,3410.95C1811.94,3368.51 1777.49,3334.06 1735.05,3334.06C1692.62,3334.06 1658.17,3368.51 1658.17,3410.95C1658.17,3424.44 1661.72,3437.7 1668.47,3449.39L1801.63,3449.39Z"/>
        </g>
        <g transform="matrix(1,0,0,1,115.013,-124.643)">
            <ellipse cx="1948.38" cy="3802.28" rx="57.507" ry="33.334"/>
        </g>
        <g transform="matrix(1,0,0,1,308.233,-124.643)">
            <ellipse cx="1948.38" cy="3802.28" rx="57.507" ry="33.334"/>
        </g>
    </g>
</svg>
